<svg id="visual" viewBox="0 0 900 600" width="900" height="600" xmlns="http://www.w3.org/2000/svg" xmlns:xlink="http://www.w3.org/1999/xlink" version="1.1"><g transform="translate(444.6228633168565 251.8250861961791)"><path d="M128.4 -114C190 -101.4 279.6 -83.2 302.6 -40.4C325.6 2.4 281.9 70 237.3 127.5C192.7 185 147.3 232.5 96.6 239.8C45.9 247.1 -10 214.2 -72.6 193.9C-135.2 173.6 -204.4 165.8 -248.6 125.8C-292.7 85.9 -311.8 13.8 -287.6 -38.1C-263.4 -90 -196 -121.6 -140.9 -135.3C-85.7 -149 -42.9 -144.8 -4.7 -139.2C33.4 -133.6 66.8 -126.5 128.4 -114" fill="#daeeff"></path></g></svg>